{"accessors":[{"bufferView":0,"componentType":5126,"count":370923,"min":[-20.208984375,-3.5732383728027344,-24.164630889892578],"max":[20.208984375,3.5732383728027344,24.164628982543945],"type":"VEC3"},{"bufferView":1,"componentType":5125,"count":1860465,"type":"SCALAR"},{"bufferView":2,"componentType":5126,"count":370923,"type":"VEC2"}],"asset":{"generator":"Polycam","version":"2.0"},"bufferViews":[{"buffer":0,"byteLength":4451076,"byteOffset":0},{"buffer":0,"byteLength":7441860,"byteOffset":4451076},{"buffer":0,"byteLength":2967384,"byteOffset":11892936}],"materials":[{"pbrMetallicRoughness":{"metallicFactor":0,"baseColorTexture":{"index":0}}}],"meshes":[{"primitives":[{"attributes":{"POSITION":0,"TEXCOORD_0":2},"indices":1,"material":0,"mode":4}]}],"nodes":[{"mesh":0}],"scene":0,"scenes":[{"nodes":[0]}],"textures":[{"source":0}],"buffers":[{"uri":"poly_geometry.bin","byteLength":14860320}],"images":[{"uri":"6597a51d8b271e69e11a0554ba9b5c53.jpg"}]}